{
    "asset" : {
        "generator" : "Khronos glTF Blender I/O v1.2.75",
        "version" : "2.0"
    },
    "scene" : 0,
    "scenes" : [
        {
            "name" : "Scene",
            "nodes" : [
                0,
                1,
                2
            ]
        }
    ],
    "nodes" : [
        {
            "mesh" : 0,
            "name" : "Head",
            "translation" : [
                0,
                2.2487525939941406,
                0
            ]
        },
        {
            "mesh" : 1,
            "name" : "Body",
            "translation" : [
                0,
                1.1029046773910522,
                0
            ]
        },
        {
            "mesh" : 2,
            "name" : "Tshirt",
            "translation" : [
                0,
                1.1029046773910522,
                0
            ]
        }
    ],
    "materials" : [
        {
            "doubleSided" : true,
            "emissiveFactor" : [
                0,
                0,
                0
            ],
            "name" : "Meki neko texture",
            "pbrMetallicRoughness" : {
                "baseColorTexture" : {
                    "index" : 0,
                    "texCoord" : 0
                },
                "metallicFactor" : 0,
                "roughnessFactor" : 0.5
            }
        },
        {
            "doubleSided" : true,
            "emissiveFactor" : [
                0,
                0,
                0
            ],
            "name" : "TEXT",
            "pbrMetallicRoughness" : {
                "baseColorTexture" : {
                    "index" : 1,
                    "texCoord" : 0
                },
                "metallicFactor" : 0,
                "roughnessFactor" : 0.5
            }
        }
    ],
    "meshes" : [
        {
            "name" : "Roundcube.003",
            "primitives" : [
                {
                    "attributes" : {
                        "POSITION" : 0,
                        "NORMAL" : 1,
                        "TEXCOORD_0" : 2
                    },
                    "indices" : 3,
                    "material" : 0
                }
            ]
        },
        {
            "name" : "Roundcube.004",
            "primitives" : [
                {
                    "attributes" : {
                        "POSITION" : 4,
                        "NORMAL" : 5,
                        "TEXCOORD_0" : 6
                    },
                    "indices" : 7,
                    "material" : 0
                }
            ]
        },
        {
            "name" : "Roundcube.005",
            "primitives" : [
                {
                    "attributes" : {
                        "POSITION" : 8,
                        "NORMAL" : 9,
                        "TEXCOORD_0" : 10
                    },
                    "indices" : 11,
                    "material" : 1
                }
            ]
        }
    ],
    "textures" : [
        {
            "source" : 0
        },
        {
            "source" : 0
        }
    ],
    "images" : [
        {
            "bufferView" : 4,
            "mimeType" : "image/png",
            "name" : "Meki neko texture"
        }
    ],
    "accessors" : [
        {
            "bufferView" : 0,
            "componentType" : 5126,
            "count" : 3717,
            "max" : [
                1.0989346504211426,
                1.2540597915649414,
                0.9578580260276794
            ],
            "min" : [
                -1.0989347696304321,
                -0.8195173740386963,
                -0.9600077271461487
            ],
            "type" : "VEC3"
        },
        {
            "bufferView" : 1,
            "componentType" : 5126,
            "count" : 3717,
            "type" : "VEC3"
        },
        {
            "bufferView" : 2,
            "componentType" : 5126,
            "count" : 3717,
            "type" : "VEC2"
        },
        {
            "bufferView" : 3,
            "componentType" : 5123,
            "count" : 17280,
            "type" : "SCALAR"
        },
        {
            "bufferView" : 5,
            "componentType" : 5126,
            "count" : 6916,
            "max" : [
                1.0032994747161865,
                0.4563331604003906,
                0.4363362491130829
            ],
            "min" : [
                -1.003299355506897,
                -1.1028887033462524,
                -0.4544031620025635
            ],
            "type" : "VEC3"
        },
        {
            "bufferView" : 6,
            "componentType" : 5126,
            "count" : 6916,
            "type" : "VEC3"
        },
        {
            "bufferView" : 7,
            "componentType" : 5126,
            "count" : 6916,
            "type" : "VEC2"
        },
        {
            "bufferView" : 8,
            "componentType" : 5123,
            "count" : 31152,
            "type" : "SCALAR"
        },
        {
            "bufferView" : 9,
            "componentType" : 5126,
            "count" : 3363,
            "max" : [
                0.8234316110610962,
                0.46757447719573975,
                0.44869792461395264
            ],
            "min" : [
                -0.8234315514564514,
                -0.5516952276229858,
                -0.4669228196144104
            ],
            "type" : "VEC3"
        },
        {
            "bufferView" : 10,
            "componentType" : 5126,
            "count" : 3363,
            "type" : "VEC3"
        },
        {
            "bufferView" : 11,
            "componentType" : 5126,
            "count" : 3363,
            "type" : "VEC2"
        },
        {
            "bufferView" : 12,
            "componentType" : 5123,
            "count" : 16128,
            "type" : "SCALAR"
        }
    ],
    "bufferViews" : [
        {
            "buffer" : 0,
            "byteLength" : 44604,
            "byteOffset" : 0
        },
        {
            "buffer" : 0,
            "byteLength" : 44604,
            "byteOffset" : 44604
        },
        {
            "buffer" : 0,
            "byteLength" : 29736,
            "byteOffset" : 89208
        },
        {
            "buffer" : 0,
            "byteLength" : 34560,
            "byteOffset" : 118944
        },
        {
            "buffer" : 0,
            "byteLength" : 237763,
            "byteOffset" : 153504
        },
        {
            "buffer" : 0,
            "byteLength" : 82992,
            "byteOffset" : 391268
        },
        {
            "buffer" : 0,
            "byteLength" : 82992,
            "byteOffset" : 474260
        },
        {
            "buffer" : 0,
            "byteLength" : 55328,
            "byteOffset" : 557252
        },
        {
            "buffer" : 0,
            "byteLength" : 62304,
            "byteOffset" : 612580
        },
        {
            "buffer" : 0,
            "byteLength" : 40356,
            "byteOffset" : 674884
        },
        {
            "buffer" : 0,
            "byteLength" : 40356,
            "byteOffset" : 715240
        },
        {
            "buffer" : 0,
            "byteLength" : 26904,
            "byteOffset" : 755596
        },
        {
            "buffer" : 0,
            "byteLength" : 32256,
            "byteOffset" : 782500
        }
    ],
    "buffers" : [
        {
            "byteLength" : 814756,
            "uri" : "data:application/octet-stream;base64,"
        }
    ]
}
